<?xml version="1.0" encoding="utf-8"?>
<!-- Generator: Adobe Illustrator 27.1.0, SVG Export Plug-In . SVG Version: 6.00 Build 0)  -->
<svg version="1.1" id="Layer_1" xmlns="http://www.w3.org/2000/svg" xmlns:xlink="http://www.w3.org/1999/xlink" x="0px" y="0px"
	 viewBox="0 0 1000 364.33" style="enable-background:new 0 0 1000 364.33;" xml:space="preserve">
<style type="text/css">
	.st0{fill:url(#SVGID_1_);}
	.st1{fill:url(#SVGID_00000012448514924500298800000008787558932167184285_);}
	.st2{fill:url(#SVGID_00000150072451804700909740000001154588007150651805_);}
	.st3{fill:#060077;}
	.st4{fill:none;}
</style>
<g>
	<linearGradient id="SVGID_1_" gradientUnits="userSpaceOnUse" x1="222.8394" y1="317.6189" x2="128.8137" y2="100.1844">
		<stop  offset="0" style="stop-color:#380AFF"/>
		<stop  offset="1" style="stop-color:#61A8FF"/>
	</linearGradient>
	<path class="st0" d="M317.16,194.14v103.9c0,3.43-0.5,6.74-1.43,9.88c-4.25,14.91-17.98,25.8-34.25,25.8h-103.9
		c-18.34,0-33.43-13.81-35.43-31.65c-0.18-1.32-0.25-2.68-0.25-4.03v-56.87c0-1.39-0.07-2.78-0.25-4.14
		c-2.03-17.77-17.13-31.54-35.43-31.54H46.89c-0.89,0-1.78-0.04-2.64-0.11c-18.48-1.36-33.04-16.73-33.04-35.57V65.91
		c0-19.7,15.98-35.68,35.68-35.68h103.9c19.69,0,35.68,15.98,35.68,35.68v56.87c0,1.28,0.07,2.53,0.21,3.78
		c0,0.11,0.04,0.18,0.04,0.28c2.03,17.8,17.13,31.61,35.43,31.61h59.33C301.18,158.46,317.16,174.45,317.16,194.14z"/>
	
		<linearGradient id="SVGID_00000169517750731357784960000011281318669688229259_" gradientUnits="userSpaceOnUse" x1="409.6659" y1="241.6234" x2="192.2314" y2="199.6477">
		<stop  offset="0" style="stop-color:#5578FF"/>
		<stop  offset="1" style="stop-color:#61A8FF"/>
	</linearGradient>
	<path style="fill:url(#SVGID_00000169517750731357784960000011281318669688229259_);" d="M317.15,194.15v101.33
		c-2.03-17.77-17.13-31.61-35.43-31.61h-59.33c-19.73,0-35.68-15.98-35.68-35.68V126.86c2.03,17.8,17.13,31.61,35.43,31.61h59.33
		C301.17,158.47,317.15,174.46,317.15,194.15z"/>
	
		<linearGradient id="SVGID_00000018920554938264819470000008493316171837119113_" gradientUnits="userSpaceOnUse" x1="136.5745" y1="133.8694" x2="14.8447" y2="131.3509">
		<stop  offset="0" style="stop-color:#380AFF"/>
		<stop  offset="1" style="stop-color:#61A8FF"/>
	</linearGradient>
	<path style="fill:url(#SVGID_00000018920554938264819470000008493316171837119113_);" d="M141.66,63.76v173.27
		c-2.03-17.77-17.13-31.54-35.43-31.54H46.89c-0.89,0-1.78-0.04-2.64-0.11c-18.48-1.36-33.04-16.73-33.04-35.57V65.91
		c0-19.71,15.97-35.68,35.68-35.68h61.24C126.65,30.23,141.66,45.24,141.66,63.76z"/>
</g>
<g>
	<path class="st3" d="M485.58,253.16v40.32h-69.93c-14.28,0-26.46-5.09-36.54-15.28C369.03,268.02,364,255.79,364,241.51V74.25h40
		v167.25c0,3.36,1.15,6.14,3.46,8.35c2.31,2.21,5.04,3.31,8.19,3.31H485.58z"/>
	<path class="st3" d="M610.3,137.25h40v80.32c0,21-7.4,38.9-22.21,53.7c-14.8,14.8-32.65,22.2-53.55,22.2
		c-20.9,0-38.74-7.4-53.55-22.2c-14.8-14.81-22.2-32.71-22.2-53.7v-80.32h40v80.32c0,9.87,3.51,18.32,10.55,25.35
		c7.03,7.04,15.43,10.55,25.2,10.55c9.76,0,18.16-3.51,25.2-10.55c7.03-7.03,10.55-15.48,10.55-25.35V137.25z"/>
	<path class="st3" d="M966.85,115.83c-4.2,0-8.03-1-11.5-2.99c-3.46-1.99-6.2-4.73-8.19-8.19c-2-3.46-2.99-7.29-2.99-11.5
		c0-6.3,2.2-11.66,6.61-16.06c4.41-4.41,9.76-6.61,16.06-6.61c6.3,0,11.66,2.21,16.06,6.61c4.41,4.41,6.61,9.76,6.61,16.06
		c0,6.3-2.21,11.65-6.61,16.06C978.51,113.63,973.15,115.83,966.85,115.83z M987.01,293.48h-40.32V137.25h40.32V293.48z"/>
	<line class="st4" x1="693.25" y1="210.67" x2="673.78" y2="161.05"/>
	<polygon class="st3" points="929.32,137.25 920.05,161.05 896.31,222.06 887.26,245.36 875.44,275.69 868.53,293.48 833.91,293.48 
		796.79,215.36 760.24,293.48 725.72,293.48 718.96,276.26 713.02,261.19 673.78,161.05 673.63,160.66 664.47,137.25 709.47,137.25 
		712.87,146.63 727.23,185.83 745.34,235.41 765.93,190.12 778.06,163.45 779.42,160.45 779.42,160.41 789.99,137.25 806.2,137.25 
		816.37,159.91 818.12,163.78 823.92,176.73 850.67,236.31 867.39,190.12 882.64,147.92 886.5,137.25 	"/>
</g>
</svg>
